<?xml version="1.0" encoding="utf-8"?>
<!-- Generator: Adobe Illustrator 17.0.0, SVG Export Plug-In . SVG Version: 6.00 Build 0)  -->
<!DOCTYPE svg PUBLIC "-//W3C//DTD SVG 1.1//EN" "http://www.w3.org/Graphics/SVG/1.1/DTD/svg11.dtd">
<svg version="1.1" id="图层_2" xmlns="http://www.w3.org/2000/svg" xmlns:xlink="http://www.w3.org/1999/xlink" x="0px" y="0px"
	 width="19.223px" height="25.451px" viewBox="0 0 19.223 25.451" enable-background="new 0 0 19.223 25.451" xml:space="preserve">
<path fill="#75C9E1" d="M15.001,5.271c0.495,0.414,0.788,1.019,0.795,1.664c0.015,1.486-0.374,2.98-0.76,4.43
	c-0.526,1.972-1.059,3.959-1.964,5.789c-0.578,1.168-1.358,2.27-2.309,3.176c-0.877,0.835-2.278,0.762-3.086-0.14
	c-0.414-0.462-0.827-0.924-1.242-1.387c-0.94-1.049-1.856-2.15-2.638-3.328c-0.717-1.08-0.355-2.565,0.8-3.153
	c0.495-0.252,0.972-0.557,1.433-0.856c1.356-0.881,2.73-1.778,3.787-3.001c0.64-0.74,1.144-1.592,1.497-2.504
	c0.553-1.428,2.369-1.9,3.494-0.861C14.868,5.157,14.933,5.214,15.001,5.271z"/>
</svg>
