<?xml version="1.0" encoding="utf-8"?>
<!-- Generator: Adobe Illustrator 17.0.0, SVG Export Plug-In . SVG Version: 6.00 Build 0)  -->
<!DOCTYPE svg PUBLIC "-//W3C//DTD SVG 1.1//EN" "http://www.w3.org/Graphics/SVG/1.1/DTD/svg11.dtd">
<svg version="1.1" id="图层_2" xmlns="http://www.w3.org/2000/svg" xmlns:xlink="http://www.w3.org/1999/xlink" x="0px" y="0px"
	 width="21.969px" height="33.164px" viewBox="0 0 21.969 33.164" enable-background="new 0 0 21.969 33.164" xml:space="preserve">
<path fill="#EED3AB" d="M20.738,20.127c-2.576-1.278-3.572-4.375-4.316-7.153c-0.95-3.544-1.843-7.521-1.115-11.116
	c-1.801,4.626-4.002,9.381-8.018,12.299c-1.747,1.269-3.995,2.149-6.058,1.511c2.828,0.852,5.903,4.371,7.182,7.034
	c1.28,2.662,1.384,5.864,0.281,8.604c0.767-1.531,1.573-3.046,2.454-4.514c1.025-1.708,2.152-3.399,3.706-4.644
	C16.409,20.905,18.793,19.704,20.738,20.127z"/>
</svg>
