<?xml version="1.0" encoding="utf-8"?>
<!-- Generator: Adobe Illustrator 17.0.0, SVG Export Plug-In . SVG Version: 6.00 Build 0)  -->
<!DOCTYPE svg PUBLIC "-//W3C//DTD SVG 1.1//EN" "http://www.w3.org/Graphics/SVG/1.1/DTD/svg11.dtd">
<svg version="1.1" id="图层_2" xmlns="http://www.w3.org/2000/svg" xmlns:xlink="http://www.w3.org/1999/xlink" x="0px" y="0px"
	 width="34.276px" height="20.454px" viewBox="0 0 34.276 20.454" enable-background="new 0 0 34.276 20.454" xml:space="preserve">
<path fill="#E63D37" d="M34.276,15.282c-0.143-1.611-0.326-3.324-1.332-4.589c-1.421-1.788-4.005-2.102-6.285-1.958
	c-3.882,0.245-7.865,1.391-11.581,0.241c-3.875-1.198-6.611-4.737-7.424-8.711c-2.26,0.849-4.521,1.698-6.782,2.548
	c-0.246,0.092-0.251,0.38-0.429,0.19c0.103,2.686,0.518,5.56,2.346,7.531c1.715,1.848,4.34,2.53,6.845,2.81
	c2.713,0.304,5.452,0.242,8.181,0.285c2.792,0.044,5.916,0.354,7.731,2.477c1.009,1.179,1.445,2.825,1.153,4.349
	C29.078,18.81,31.778,16.735,34.276,15.282z"/>
</svg>
