<?xml version="1.0" encoding="utf-8"?>
<!-- Generator: Adobe Illustrator 17.0.0, SVG Export Plug-In . SVG Version: 6.00 Build 0)  -->
<!DOCTYPE svg PUBLIC "-//W3C//DTD SVG 1.1//EN" "http://www.w3.org/Graphics/SVG/1.1/DTD/svg11.dtd">
<svg version="1.1" id="图层_2" xmlns="http://www.w3.org/2000/svg" xmlns:xlink="http://www.w3.org/1999/xlink" x="0px" y="0px"
	 width="20.994px" height="31.653px" viewBox="0 0 20.994 31.653" enable-background="new 0 0 20.994 31.653" xml:space="preserve">
<path fill="#84CAB8" d="M18.813,6.172c0.626,0.897,0.255,2.139-0.777,2.502l-2.272,0.8c-1.969,0.693-4.101,1.517-5.14,3.328
	c-1.242,2.165-0.462,4.864-0.404,7.36c0.061,2.62-0.929,5.393-2.521,7.603c-1.003,1.393-3.065,1.423-4.093,0.048l-0.019-0.025
	c-0.305-0.407-0.651-0.793-1.009-1.172c-0.948-1.002-0.943-2.587,0.047-3.548c1.048-1.018,1.835-2.307,2.232-3.714
	c0.9-3.19-0.13-6.795,1.27-9.799C6.693,8.339,7.62,7.325,8.632,6.446c1.823-1.584,3.97-2.794,6.267-3.537
	c0.634-0.205,1.329-0.019,1.763,0.488c0.755,0.882,1.511,1.847,2.137,2.756C18.804,6.159,18.809,6.166,18.813,6.172z"/>
</svg>
