<?xml version="1.0" encoding="utf-8"?>
<!-- Generator: Adobe Illustrator 17.0.0, SVG Export Plug-In . SVG Version: 6.00 Build 0)  -->
<!DOCTYPE svg PUBLIC "-//W3C//DTD SVG 1.1//EN" "http://www.w3.org/Graphics/SVG/1.1/DTD/svg11.dtd">
<svg version="1.1" id="图层_2" xmlns="http://www.w3.org/2000/svg" xmlns:xlink="http://www.w3.org/1999/xlink" x="0px" y="0px"
	 width="31.27px" height="29.939px" viewBox="0 0 31.27 29.939" enable-background="new 0 0 31.27 29.939" xml:space="preserve">
<g>
	<g>
		<g>
			<g>
				<path fill="#F5C624" d="M30.271,10.644l-9.362-1.446l-4.115-8.532c-0.112-0.234-0.299-0.424-0.531-0.54
					c-0.581-0.293-1.292-0.059-1.589,0.521l-4.266,8.458l-9.386,1.279c-0.259,0.035-0.496,0.154-0.679,0.337
					c-0.458,0.465-0.458,1.211,0.007,1.673l6.723,6.673L5.387,28.39c-0.046,0.254-0.008,0.52,0.112,0.75
					c0.298,0.579,1.012,0.81,1.59,0.509l8.424-4.334l8.345,4.483c0.228,0.124,0.493,0.167,0.749,0.125
					c0.643-0.105,1.081-0.71,0.976-1.354l-1.519-9.351l6.841-6.552c0.186-0.179,0.31-0.414,0.349-0.673
					C31.362,11.348,30.916,10.746,30.271,10.644L30.271,10.644z"/>
			</g>
		</g>
	</g>
</g>
</svg>
